{
  "source": "C:\\Users\\Peter\\Desktop\\stuff\\MIUN\\quantitative_research\\video_compression\\videos\\UVG\\Bosphorus_1920x1080_120fps_420_8bit_YUV.y4m",
  "output": "C:\\Users\\Peter\\Desktop\\stuff\\MIUN\\quantitative_research\\video_compression\\compressed_videos\\UVG\\vp9\\4\\Bosphorus_1920x1080_120fps_420_8bit_YUV_vp9.webm",
  "codec": "vp9",
  "ok": "[yuv4mpegpipe @ 000002f165b252c0] Stream #0: not enough frames to estimate rate; consider increasing probesize\nInput #0, yuv4mpegpipe, from 'C:\\Users\\Peter\\Desktop\\stuff\\MIUN\\quantitative_research\\video_compression\\videos\\UVG\\Bosphorus_1920x1080_120fps_420_8bit_YUV.y4m':\n  Duration: 00:00:05.00, start: 0.000000, bitrate: 2985989 kb/s\n  Stream #0:0: Video: rawvideo (I420 / 0x30323449), yuv420p(progressive), 1920x1080, 120 fps, 120 tbr, 120 tbn\n[out#0/webm @ 000002f165b29b80] Codec AVOption b:a (set bitrate (in bits/s)) has not been used for any stream. The most likely reason is either wrong type (e.g. a video option with no video streams) or that it is a private option of some decoder which was not actually used for any stream.\nStream mapping:\n  Stream #0:0 -> #0:0 (rawvideo (native) -> vp9 (libvpx-vp9))\nPress [q] to stop, [?] for help\n[libvpx-vp9 @ 000002f165b2cec0] v1.15.2-100-g40561f514\nOutput #0, webm, to 'C:\\Users\\Peter\\Desktop\\stuff\\MIUN\\quantitative_research\\video_compression\\compressed_videos\\UVG\\vp9\\4\\Bosphorus_1920x1080_120fps_420_8bit_YUV_vp9.webm':\n  Metadata:\n    encoder         : Lavf62.3.100\n  Stream #0:0: Video: vp9, yuv420p(tv, progressive), 1920x1080, q=2-31, 4000 kb/s, 120 fps, 1k tbn\n    Metadata:\n      encoder         : Lavc62.11.100 libvpx-vp9\n    Side data:\n      cpb: bitrate max/min/avg: 0/0/0 buffer size: 4000000 vbv_delay: N/A\nframe=    0 fps=0.0 q=0.0 size=       0KiB time=N/A bitrate=N/A speed=N/A elapsed=0:00:00.52    \nframe=    6 fps=5.6 q=43.0 size=       0KiB time=00:00:00.05 bitrate=  77.0kbits/s speed=0.0465x elapsed=0:00:01.07    \nframe=   10 fps=6.2 q=43.0 size=       0KiB time=00:00:00.08 bitrate=  46.2kbits/s speed=0.0516x elapsed=0:00:01.61    \nframe=   14 fps=6.5 q=43.0 size=       0KiB time=00:00:00.11 bitrate=  33.0kbits/s speed=0.0538x elapsed=0:00:02.16    \nframe=   18 fps=6.6 q=36.0 size=       0KiB time=00:00:00.15 bitrate=  25.7kbits/s speed=0.0554x elapsed=0:00:02.70    \nframe=   22 fps=6.8 q=37.0 size=       0KiB time=00:00:00.18 bitrate=  21.0kbits/s speed=0.0567x elapsed=0:00:03.23    \nframe=   27 fps=7.1 q=44.0 size=       0KiB time=00:00:00.22 bitrate=  17.1kbits/s speed=0.0596x elapsed=0:00:03.77    \nframe=   30 fps=7.0 q=38.0 size=       0KiB time=00:00:00.25 bitrate=  15.4kbits/s speed=0.0581x elapsed=0:00:04.30    \nframe=   34 fps=7.0 q=39.0 size=       0KiB time=00:00:00.28 bitrate=  13.6kbits/s speed=0.058x elapsed=0:00:04.88    \nframe=   39 fps=7.2 q=38.0 size=       0KiB time=00:00:00.32 bitrate=  11.8kbits/s speed=0.0596x elapsed=0:00:05.44    \nframe=   44 fps=7.3 q=45.0 size=       0KiB time=00:00:00.36 bitrate=  10.5kbits/s speed=0.0608x elapsed=0:00:06.03    \nframe=   47 fps=7.1 q=41.0 size=       0KiB time=00:00:00.39 bitrate=   9.8kbits/s speed=0.0594x elapsed=0:00:06.58    \nframe=   52 fps=7.3 q=36.0 size=       0KiB time=00:00:00.43 bitrate=   8.9kbits/s speed=0.0605x elapsed=0:00:07.15    \nframe=   57 fps=7.4 q=42.0 size=       0KiB time=00:00:00.47 bitrate=   8.1kbits/s speed=0.0615x elapsed=0:00:07.72    \nframe=   60 fps=7.3 q=35.0 size=       0KiB time=00:00:00.50 bitrate=   7.7kbits/s speed=0.0605x elapsed=0:00:08.26    \nframe=   65 fps=7.4 q=40.0 size=       0KiB time=00:00:00.53 bitrate=   7.2kbits/s speed=0.0605x elapsed=0:00:08.82    \nframe=   69 fps=7.3 q=43.0 size=       0KiB time=00:00:00.57 bitrate=   6.7kbits/s speed=0.0611x elapsed=0:00:09.40    \nframe=   74 fps=7.4 q=39.0 size=       0KiB time=00:00:00.61 bitrate=   6.2kbits/s speed=0.062x elapsed=0:00:09.93    \nframe=   78 fps=7.5 q=36.0 size=       0KiB time=00:00:00.65 bitrate=   5.9kbits/s speed=0.0621x elapsed=0:00:10.46    \nframe=   83 fps=7.6 q=45.0 size=       0KiB time=00:00:00.69 bitrate=   5.6kbits/s speed=0.063x elapsed=0:00:10.98    \nframe=   87 fps=7.6 q=45.0 size=       0KiB time=00:00:00.72 bitrate=   5.3kbits/s speed=0.0629x elapsed=0:00:11.51    \nframe=   91 fps=7.5 q=29.0 size=       0KiB time=00:00:00.75 bitrate=   5.1kbits/s speed=0.0628x elapsed=0:00:12.08    \nframe=   96 fps=7.6 q=41.0 size=       0KiB time=00:00:00.80 bitrate=   4.8kbits/s speed=0.0633x elapsed=0:00:12.64    \nframe=  100 fps=7.6 q=43.0 size=       0KiB time=00:00:00.83 bitrate=   4.6kbits/s speed=0.0632x elapsed=0:00:13.18    \nframe=  104 fps=7.6 q=43.0 size=       0KiB time=00:00:00.86 bitrate=   4.4kbits/s speed=0.0632x elapsed=0:00:13.70    \nframe=  108 fps=7.6 q=38.0 size=       0KiB time=00:00:00.90 bitrate=   4.3kbits/s speed=0.0633x elapsed=0:00:14.21    \nframe=  113 fps=7.7 q=43.0 size=       0KiB time=00:00:00.93 bitrate=   4.1kbits/s speed=0.0632x elapsed=0:00:14.76    \nframe=  116 fps=7.6 q=40.0 size=       0KiB time=00:00:00.96 bitrate=   4.0kbits/s speed=0.063x elapsed=0:00:15.33    \nframe=  121 fps=7.6 q=37.0 size=       0KiB time=00:00:01.00 bitrate=   3.8kbits/s speed=0.0636x elapsed=0:00:15.85    \nframe=  126 fps=7.7 q=44.0 size=       0KiB time=00:00:01.05 bitrate=   3.7kbits/s speed=0.064x elapsed=0:00:16.40    \nframe=  130 fps=7.7 q=37.0 size=     512KiB time=00:00:01.07 bitrate=3901.7kbits/s speed=0.0635x elapsed=0:00:16.93    \nframe=  134 fps=7.7 q=40.0 size=     512KiB time=00:00:01.11 bitrate=3756.1kbits/s speed=0.0638x elapsed=0:00:17.49    \nframe=  139 fps=7.7 q=38.0 size=     512KiB time=00:00:01.15 bitrate=3621.0kbits/s speed=0.0643x elapsed=0:00:18.00    \nframe=  143 fps=7.7 q=38.0 size=     512KiB time=00:00:01.19 bitrate=3519.7kbits/s speed=0.0643x elapsed=0:00:18.54    \nframe=  147 fps=7.7 q=40.0 size=     512KiB time=00:00:01.22 bitrate=3423.9kbits/s speed=0.0641x elapsed=0:00:19.10    \nframe=  151 fps=7.7 q=42.0 size=     512KiB time=00:00:01.25 bitrate=3333.2kbits/s speed=0.064x elapsed=0:00:19.65    \nframe=  155 fps=7.7 q=43.0 size=     512KiB time=00:00:01.29 bitrate=3247.2kbits/s speed=0.064x elapsed=0:00:20.18    \nframe=  158 fps=7.6 q=42.0 size=     512KiB time=00:00:01.31 bitrate=3185.5kbits/s speed=0.0635x elapsed=0:00:20.73    \nframe=  163 fps=7.7 q=39.0 size=     512KiB time=00:00:01.35 bitrate=3106.9kbits/s speed=0.0635x elapsed=0:00:21.26    \nframe=  166 fps=7.6 q=43.0 size=     512KiB time=00:00:01.38 bitrate=3032.0kbits/s speed=0.0634x elapsed=0:00:21.83    \nframe=  171 fps=7.6 q=39.0 size=     512KiB time=00:00:01.41 bitrate=2960.7kbits/s speed=0.0632x elapsed=0:00:22.40    \nframe=  174 fps=7.6 q=31.0 size=     512KiB time=00:00:01.45 bitrate=2892.6kbits/s speed=0.0632x elapsed=0:00:22.95    \nframe=  178 fps=7.6 q=37.0 size=     512KiB time=00:00:01.48 bitrate=2827.6kbits/s speed=0.063x elapsed=0:00:23.54    \nframe=  182 fps=7.6 q=37.0 size=     512KiB time=00:00:01.51 bitrate=2765.5kbits/s speed=0.063x elapsed=0:00:24.08    \nframe=  185 fps=7.5 q=44.0 size=     512KiB time=00:00:01.54 bitrate=2720.6kbits/s speed=0.0627x elapsed=0:00:24.59    \nframe=  188 fps=7.5 q=37.0 size=     512KiB time=00:00:01.56 bitrate=2677.2kbits/s speed=0.0623x elapsed=0:00:25.13    \nframe=  192 fps=7.5 q=39.0 size=     512KiB time=00:00:01.60 bitrate=2621.4kbits/s speed=0.0623x elapsed=0:00:25.67    \nframe=  196 fps=7.5 q=42.0 size=     512KiB time=00:00:01.62 bitrate=2581.1kbits/s speed=0.062x elapsed=0:00:26.21    \nframe=  200 fps=7.5 q=44.0 size=     512KiB time=00:00:01.66 bitrate=2516.6kbits/s speed=0.0622x elapsed=0:00:26.80    \nframe=  203 fps=7.4 q=38.0 size=     512KiB time=00:00:01.69 bitrate=2479.4kbits/s speed=0.0619x elapsed=0:00:27.32    \nframe=  207 fps=7.4 q=39.0 size=     512KiB time=00:00:01.72 bitrate=2431.5kbits/s speed=0.0619x elapsed=0:00:27.85    \nframe=  211 fps=7.4 q=41.0 size=     512KiB time=00:00:01.75 bitrate=2385.4kbits/s speed=0.0619x elapsed=0:00:28.41    \nframe=  215 fps=7.4 q=43.0 size=     512KiB time=00:00:01.79 bitrate=2341.0kbits/s speed=0.0618x elapsed=0:00:28.97    \nframe=  218 fps=7.4 q=36.0 size=     512KiB time=00:00:01.81 bitrate=2308.8kbits/s speed=0.0615x elapsed=0:00:29.55    \nframe=  222 fps=7.4 q=38.0 size=     512KiB time=00:00:01.85 bitrate=2267.2kbits/s speed=0.0615x elapsed=0:00:30.07    \nframe=  227 fps=7.4 q=38.0 size=     512KiB time=00:00:01.89 bitrate=2217.3kbits/s speed=0.0618x elapsed=0:00:30.62    \nframe=  230 fps=7.4 q=43.0 size=     512KiB time=00:00:01.91 bitrate=2188.3kbits/s speed=0.0615x elapsed=0:00:31.15    \nframe=  234 fps=7.4 q=29.0 size=     512KiB time=00:00:01.95 bitrate=2150.9kbits/s speed=0.0615x elapsed=0:00:31.71    \nframe=  238 fps=7.4 q=38.0 size=     512KiB time=00:00:01.98 bitrate=2114.8kbits/s speed=0.0615x elapsed=0:00:32.25    \nframe=  243 fps=7.4 q=43.0 size=     512KiB time=00:00:02.02 bitrate=2071.3kbits/s speed=0.0617x elapsed=0:00:32.79    \nframe=  247 fps=7.4 q=38.0 size=     512KiB time=00:00:02.05 bitrate=2046.0kbits/s speed=0.0615x elapsed=0:00:33.34    \nframe=  250 fps=7.4 q=42.0 size=     512KiB time=00:00:02.08 bitrate=2013.3kbits/s speed=0.0614x elapsed=0:00:33.90    \nframe=  254 fps=7.4 q=41.0 size=     512KiB time=00:00:02.11 bitrate=1981.6kbits/s speed=0.0615x elapsed=0:00:34.42    \nframe=  258 fps=7.4 q=40.0 size=    1024KiB time=00:00:02.15 bitrate=3901.7kbits/s speed=0.0615x elapsed=0:00:34.97    \nframe=  263 fps=7.4 q=40.0 size=    1024KiB time=00:00:02.19 bitrate=3827.5kbits/s speed=0.0617x elapsed=0:00:35.50    \nframe=  267 fps=7.4 q=41.0 size=    1024KiB time=00:00:02.22 bitrate=3770.2kbits/s speed=0.0617x elapsed=0:00:36.04    \nframe=  270 fps=7.4 q=40.0 size=    1024KiB time=00:00:02.25 bitrate=3728.3kbits/s speed=0.0615x elapsed=0:00:36.60    \nframe=  274 fps=7.4 q=41.0 size=    1024KiB time=00:00:02.28 bitrate=3673.8kbits/s speed=0.0615x elapsed=0:00:37.14    \nframe=  278 fps=7.4 q=32.0 size=    1024KiB time=00:00:02.31 bitrate=3621.0kbits/s speed=0.0615x elapsed=0:00:37.67    \nframe=  282 fps=7.4 q=40.0 size=    1024KiB time=00:00:02.35 bitrate=3569.6kbits/s speed=0.0615x elapsed=0:00:38.20    \nframe=  286 fps=7.4 q=43.0 size=    1024KiB time=00:00:02.38 bitrate=3519.7kbits/s speed=0.0615x elapsed=0:00:38.76    \nframe=  290 fps=7.4 q=43.0 size=    1024KiB time=00:00:02.41 bitrate=3471.1kbits/s speed=0.0614x elapsed=0:00:39.36    \nframe=  293 fps=7.3 q=43.0 size=    1024KiB time=00:00:02.44 bitrate=3435.6kbits/s speed=0.0612x elapsed=0:00:39.89    \nframe=  297 fps=7.3 q=42.0 size=    1024KiB time=00:00:02.47 bitrate=3389.3kbits/s speed=0.0612x elapsed=0:00:40.40    \nframe=  300 fps=7.3 q=43.0 size=    1024KiB time=00:00:02.50 bitrate=3355.4kbits/s speed=0.0611x elapsed=0:00:40.92    \nframe=  305 fps=7.4 q=40.0 size=    1024KiB time=00:00:02.54 bitrate=3300.4kbits/s speed=0.0613x elapsed=0:00:41.47    \nframe=  309 fps=7.3 q=41.0 size=    1024KiB time=00:00:02.57 bitrate=3257.7kbits/s speed=0.0612x elapsed=0:00:42.05    \nframe=  312 fps=7.3 q=40.0 size=    1024KiB time=00:00:02.60 bitrate=3226.4kbits/s speed=0.0611x elapsed=0:00:42.58    \nframe=  316 fps=7.3 q=41.0 size=    1024KiB time=00:00:02.63 bitrate=3185.5kbits/s speed=0.061x elapsed=0:00:43.13    \nframe=  319 fps=7.3 q=40.0 size=    1024KiB time=00:00:02.65 bitrate=3155.6kbits/s speed=0.0608x elapsed=0:00:43.71    \nframe=  323 fps=7.3 q=41.0 size=    1024KiB time=00:00:02.69 bitrate=3116.5kbits/s speed=0.0608x elapsed=0:00:44.24    \nframe=  327 fps=7.3 q=32.0 size=    1024KiB time=00:00:02.71 bitrate=3087.8kbits/s speed=0.0607x elapsed=0:00:44.77    \nframe=  332 fps=7.3 q=42.0 size=    1024KiB time=00:00:02.76 bitrate=3032.0kbits/s speed=0.061x elapsed=0:00:45.33    \nframe=  335 fps=7.3 q=43.0 size=    1024KiB time=00:00:02.79 bitrate=3004.9kbits/s speed=0.0609x elapsed=0:00:45.86    \nframe=  340 fps=7.3 q=41.0 size=    1024KiB time=00:00:02.83 bitrate=2960.7kbits/s speed=0.061x elapsed=0:00:46.44    \nframe=  343 fps=7.3 q=38.0 size=    1024KiB time=00:00:02.85 bitrate=2934.8kbits/s speed=0.0607x elapsed=0:00:47.05    \nframe=  347 fps=7.3 q=40.0 size=    1024KiB time=00:00:02.89 bitrate=2901.0kbits/s speed=0.0607x elapsed=0:00:47.60    \nframe=  352 fps=7.3 q=40.0 size=    1024KiB time=00:00:02.93 bitrate=2859.8kbits/s speed=0.0609x elapsed=0:00:48.16    \nframe=  356 fps=7.3 q=42.0 size=    1024KiB time=00:00:02.96 bitrate=2827.6kbits/s speed=0.0609x elapsed=0:00:48.71    \nframe=  360 fps=7.3 q=42.0 size=    1024KiB time=00:00:03.00 bitrate=2796.2kbits/s speed=0.0609x elapsed=0:00:49.24    \nframe=  364 fps=7.3 q=38.0 size=    1024KiB time=00:00:03.03 bitrate=2765.5kbits/s speed=0.0609x elapsed=0:00:49.76    \nframe=  368 fps=7.3 q=40.0 size=    1024KiB time=00:00:03.06 bitrate=2735.4kbits/s speed=0.0609x elapsed=0:00:50.32    \nframe=  372 fps=7.3 q=41.0 size=    1024KiB time=00:00:03.10 bitrate=2706.0kbits/s speed=0.0609x elapsed=0:00:50.88    \nframe=  375 fps=7.3 q=40.0 size=    1024KiB time=00:00:03.12 bitrate=2684.4kbits/s speed=0.0608x elapsed=0:00:51.40    \nframe=  380 fps=7.3 q=38.0 size=    1024KiB time=00:00:03.16 bitrate=2649.0kbits/s speed=0.0609x elapsed=0:00:51.96    \nframe=  384 fps=7.3 q=39.0 size=    1024KiB time=00:00:03.20 bitrate=2621.4kbits/s speed=0.0609x elapsed=0:00:52.52    \nframe=  389 fps=7.3 q=40.0 size=    1792KiB time=00:00:03.24 bitrate=4528.6kbits/s speed=0.0611x elapsed=0:00:53.04    \nframe=  393 fps=7.3 q=39.0 size=    1792KiB time=00:00:03.27 bitrate=4482.5kbits/s speed=0.0611x elapsed=0:00:53.56    \nframe=  397 fps=7.3 q=40.0 size=    1792KiB time=00:00:03.30 bitrate=4437.3kbits/s speed=0.0611x elapsed=0:00:54.12    \nframe=  401 fps=7.3 q=42.0 size=    1792KiB time=00:00:03.34 bitrate=4393.0kbits/s speed=0.0611x elapsed=0:00:54.70    \nframe=  405 fps=7.3 q=42.0 size=    1792KiB time=00:00:03.37 bitrate=4349.6kbits/s speed=0.0611x elapsed=0:00:55.25    \nframe=  408 fps=7.3 q=43.0 size=    1792KiB time=00:00:03.40 bitrate=4317.7kbits/s speed=0.0609x elapsed=0:00:55.78    \nframe=  413 fps=7.3 q=38.0 size=    1792KiB time=00:00:03.44 bitrate=4265.4kbits/s speed=0.0611x elapsed=0:00:56.34    \nframe=  418 fps=7.3 q=43.0 size=    1792KiB time=00:00:03.48 bitrate=4214.4kbits/s speed=0.0612x elapsed=0:00:56.88    \nframe=  423 fps=7.4 q=42.0 size=    1792KiB time=00:00:03.52 bitrate=4164.6kbits/s speed=0.0613x elapsed=0:00:57.45    \nframe=  429 fps=7.4 q=41.0 size=    1792KiB time=00:00:03.57 bitrate=4106.3kbits/s speed=0.0616x elapsed=0:00:57.99    \nframe=  433 fps=7.4 q=43.0 size=    1792KiB time=00:00:03.60 bitrate=4068.4kbits/s speed=0.0616x elapsed=0:00:58.54    \nframe=  436 fps=7.4 q=37.0 size=    1792KiB time=00:00:03.63 bitrate=4040.4kbits/s speed=0.0615x elapsed=0:00:59.10    \nframe=  439 fps=7.4 q=37.0 size=    1792KiB time=00:00:03.65 bitrate=4012.8kbits/s speed=0.0613x elapsed=0:00:59.67    \nframe=  443 fps=7.4 q=40.0 size=    1792KiB time=00:00:03.69 bitrate=3976.5kbits/s speed=0.0613x elapsed=0:01:00.22    \nframe=  446 fps=7.3 q=35.0 size=    1792KiB time=00:00:03.71 bitrate=3949.8kbits/s speed=0.0611x elapsed=0:01:00.78    \nframe=  450 fps=7.3 q=37.0 size=    1792KiB time=00:00:03.75 bitrate=3914.7kbits/s speed=0.0612x elapsed=0:01:01.32    \nframe=  453 fps=7.3 q=43.0 size=    1792KiB time=00:00:03.77 bitrate=3888.8kbits/s speed=0.061x elapsed=0:01:01.85    \nframe=  457 fps=7.3 q=43.0 size=    1792KiB time=00:00:03.80 bitrate=3854.7kbits/s speed=0.0611x elapsed=0:01:02.37    \nframe=  460 fps=7.3 q=43.0 size=    1792KiB time=00:00:03.83 bitrate=3829.6kbits/s speed=0.0609x elapsed=0:01:02.97    \nframe=  464 fps=7.3 q=40.0 size=    1792KiB time=00:00:03.86 bitrate=3796.6kbits/s speed=0.0609x elapsed=0:01:03.52    \nframe=  468 fps=7.3 q=42.0 size=    1792KiB time=00:00:03.90 bitrate=3764.1kbits/s speed=0.0608x elapsed=0:01:04.09    \nframe=  472 fps=7.3 q=43.0 size=    1792KiB time=00:00:03.93 bitrate=3732.2kbits/s speed=0.0609x elapsed=0:01:04.63    \nframe=  475 fps=7.3 q=43.0 size=    1792KiB time=00:00:03.95 bitrate=3708.6kbits/s speed=0.0608x elapsed=0:01:05.15    \nframe=  479 fps=7.3 q=40.0 size=    1792KiB time=00:00:03.99 bitrate=3677.7kbits/s speed=0.0608x elapsed=0:01:05.69    \nframe=  482 fps=7.3 q=39.0 size=    1792KiB time=00:00:04.01 bitrate=3654.8kbits/s speed=0.0606x elapsed=0:01:06.27    \nframe=  486 fps=7.3 q=39.0 size=    1792KiB time=00:00:04.05 bitrate=3624.7kbits/s speed=0.0606x elapsed=0:01:06.79    \nframe=  489 fps=7.3 q=31.0 size=    1792KiB time=00:00:04.07 bitrate=3602.5kbits/s speed=0.0605x elapsed=0:01:07.35    \nframe=  493 fps=7.3 q=39.0 size=    1792KiB time=00:00:04.10 bitrate=3573.2kbits/s speed=0.0605x elapsed=0:01:07.90    \nframe=  497 fps=7.3 q=41.0 size=    1792KiB time=00:00:04.14 bitrate=3544.5kbits/s speed=0.0604x elapsed=0:01:08.52    \nframe=  500 fps=7.2 q=42.0 size=    1792KiB time=00:00:04.16 bitrate=3523.2kbits/s speed=0.0603x elapsed=0:01:09.08    \nframe=  503 fps=7.2 q=37.0 size=    1792KiB time=00:00:04.19 bitrate=3502.2kbits/s speed=0.0602x elapsed=0:01:09.64    \nframe=  507 fps=7.2 q=40.0 size=    1792KiB time=00:00:04.22 bitrate=3474.6kbits/s speed=0.0602x elapsed=0:01:10.16    \nframe=  511 fps=7.2 q=40.0 size=    1792KiB time=00:00:04.25 bitrate=3447.4kbits/s speed=0.0602x elapsed=0:01:10.75    \nframe=  514 fps=7.2 q=39.0 size=    2304KiB time=00:00:04.28 bitrate=4406.5kbits/s speed=0.0601x elapsed=0:01:11.27    \nframe=  519 fps=7.2 q=39.0 size=    2304KiB time=00:00:04.32 bitrate=4364.0kbits/s speed=0.0602x elapsed=0:01:11.81    \nframe=  524 fps=7.2 q=42.0 size=    2304KiB time=00:00:04.36 bitrate=4322.4kbits/s speed=0.0603x elapsed=0:01:12.39    \nframe=  528 fps=7.2 q=32.0 size=    2304KiB time=00:00:04.40 bitrate=4289.6kbits/s speed=0.0603x elapsed=0:01:12.93    \nframe=  533 fps=7.3 q=42.0 size=    2304KiB time=00:00:04.44 bitrate=4249.4kbits/s speed=0.0605x elapsed=0:01:13.46    \nframe=  538 fps=7.3 q=42.0 size=    2304KiB time=00:00:04.48 bitrate=4209.9kbits/s speed=0.0606x elapsed=0:01:13.97    \nframe=  543 fps=7.3 q=43.0 size=    2304KiB time=00:00:04.52 bitrate=4171.1kbits/s speed=0.0607x elapsed=0:01:14.51    \nframe=  548 fps=7.3 q=40.0 size=    2304KiB time=00:00:04.56 bitrate=4133.1kbits/s speed=0.0609x elapsed=0:01:15.03    \nframe=  554 fps=7.3 q=43.0 size=    2304KiB time=00:00:04.61 bitrate=4088.3kbits/s speed=0.0611x elapsed=0:01:15.57    \nframe=  559 fps=7.3 q=41.0 size=    2304KiB time=00:00:04.65 bitrate=4051.7kbits/s speed=0.0612x elapsed=0:01:16.11    \nframe=  565 fps=7.4 q=38.0 size=    2304KiB time=00:00:04.70 bitrate=4008.7kbits/s speed=0.0614x elapsed=0:01:16.62    \nframe=  570 fps=7.4 q=33.0 size=    2304KiB time=00:00:04.75 bitrate=3973.6kbits/s speed=0.0616x elapsed=0:01:17.14    \nframe=  576 fps=7.4 q=42.0 size=    2304KiB time=00:00:04.80 bitrate=3932.2kbits/s speed=0.0618x elapsed=0:01:17.66    \nframe=  576 fps=7.4 q=42.0 size=    2304KiB time=00:00:04.80 bitrate=3932.2kbits/s speed=0.0614x elapsed=0:01:18.19    \nframe=  576 fps=7.3 q=42.0 size=    2304KiB time=00:00:04.80 bitrate=3932.2kbits/s speed=0.061x elapsed=0:01:18.72    \nframe=  576 fps=7.3 q=42.0 size=    2304KiB time=00:00:04.80 bitrate=3932.2kbits/s speed=0.0606x elapsed=0:01:19.26    \nframe=  576 fps=7.2 q=42.0 size=    2304KiB time=00:00:04.80 bitrate=3932.2kbits/s speed=0.0602x elapsed=0:01:19.79    \n[out#0/webm @ 000002f165b29b80] video:2922KiB audio:0KiB subtitle:0KiB other streams:0KiB global headers:0KiB muxing overhead: 0.162413%\nframe=  600 fps=7.5 q=38.0 Lsize=    2926KiB time=00:00:05.00 bitrate=4794.6kbits/s speed=0.0625x elapsed=0:01:19.95    \n",
  "seconds": 80.12295055389404,
  "probe_out": {}
}